<svg xmlns="http://www.w3.org/2000/svg" width="46" height="45" viewBox="0 0 46 45">
  <g id="Group_1387" data-name="Group 1387" transform="translate(-0.434 -0.415)">
    <g id="Ellipse_5" data-name="Ellipse 5" transform="translate(0.434 0.415)" fill="#18a3b8" stroke="#fff" stroke-width="1">
      <ellipse cx="23" cy="22.5" rx="23" ry="22.5" stroke="none"/>
      <ellipse cx="23" cy="22.5" rx="22.5" ry="22" fill="none"/>
    </g>
    <path id="Path_4377" data-name="Path 4377" d="M585.46,200.391a5.179,5.179,0,0,0-.885-2.285,3.159,3.159,0,0,0-2.2-.981c-3.086-.227-7.716-.227-7.716-.227h-.024s-4.617,0-7.7.227a3.145,3.145,0,0,0-2.212.981,5.182,5.182,0,0,0-.885,2.285,35.094,35.094,0,0,0-.228,3.708v1.759a34.51,34.51,0,0,0,.228,3.708,5.261,5.261,0,0,0,.885,2.3,3.613,3.613,0,0,0,2.441.981c1.758.18,7.5.24,7.5.24s4.629-.024,7.716-.24a3.1,3.1,0,0,0,2.2-.981,5.257,5.257,0,0,0,.885-2.3,36.585,36.585,0,0,0,.215-3.708V204.1c0-1.842-.215-3.708-.215-3.708Zm-7.129,4.355-5.969,3.217V201.5l2.7,1.472Z" transform="translate(-551.28 -182.653)" fill="#fff" fill-rule="evenodd"/>
  </g>
</svg>
