<svg xmlns="http://www.w3.org/2000/svg" width="46" height="46" viewBox="0 0 46 46">
  <g id="Group_1389" data-name="Group 1389" transform="translate(-0.434 -0.168)">
    <g id="Ellipse_4" data-name="Ellipse 4" transform="translate(0.434 0.168)" fill="#18a3b8" stroke="#fff" stroke-width="1">
      <circle cx="23" cy="23" r="23" stroke="none"/>
      <circle cx="23" cy="23" r="22.5" fill="none"/>
    </g>
    <g id="Group_1388" data-name="Group 1388" transform="translate(12.325 12.081)">
      <path id="Path_4375" data-name="Path 4375" d="M191.672,78.621a5.636,5.636,0,1,1,5.63,5.643,5.643,5.643,0,0,1-5.63-5.643Zm11.456-11.029H191.489a5.23,5.23,0,0,0-5.216,5.216V84.446a5.238,5.238,0,0,0,5.216,5.216h11.638a5.23,5.23,0,0,0,5.216-5.216V72.808a5.222,5.222,0,0,0-5.216-5.216Zm-11.638,1.3h11.638a3.916,3.916,0,0,1,3.912,3.912V84.446a3.916,3.916,0,0,1-3.912,3.912H191.489a3.916,3.916,0,0,1-3.912-3.912V72.808a3.916,3.916,0,0,1,3.912-3.912Zm12.8,1.645a1.146,1.146,0,1,0,1.146,1.145,1.144,1.144,0,0,0-1.146-1.145Zm.134,8.08a7.117,7.117,0,1,0-7.117,7.117,7.117,7.117,0,0,0,7.117-7.117Z" transform="translate(-186.273 -67.592)" fill="#fff" fill-rule="evenodd"/>
      <ellipse id="Ellipse_10" data-name="Ellipse 10" cx="6" cy="6.5" rx="6" ry="6.5" transform="translate(5.109 4.087)" fill="#fff"/>
    </g>
  </g>
</svg>
