<svg xmlns="http://www.w3.org/2000/svg" width="52.899" height="60" viewBox="0 0 52.899 60">
  <g id="Layer_2" data-name="Layer 2" transform="translate(0.004 -0.03)">
    <g id="Layer_1" data-name="Layer 1" transform="translate(-0.004 0.03)">
      <path id="Path_4524" data-name="Path 4524" d="M25.155,60.03c-1.075-1.045-2.139-2.1-3.235-3.125a1.406,1.406,0,0,0-.8-.356A18.9,18.9,0,0,1,7.186,49.4,18.458,18.458,0,0,1,2.844,38.2c-.056-1.2.347-1.58,1.553-1.544a18.665,18.665,0,0,1,11.69,4.563c.347.289.583.648.386,1.063a1.055,1.055,0,0,1-.706.573,1.686,1.686,0,0,1-.963-.428,16.6,16.6,0,0,0-6.075-3.282c-1.3-.364-2.656-.564-4.114-.866A16.9,16.9,0,0,0,8.6,48.368,17.639,17.639,0,0,0,19.673,54.68c-.233-.253-.358-.4-.492-.531l-9.47-9.495a4.141,4.141,0,0,1-.442-.469.866.866,0,0,1,1.206-1.225,3.2,3.2,0,0,1,.427.4l9.593,9.61c.156.156.3.292.547.523a13.817,13.817,0,0,0-1.22-4.33c-.588-1.2-1.3-2.344-1.988-3.5-.411-.686-.206-1.441.5-1.47a1.2,1.2,0,0,1,.881.406,18.285,18.285,0,0,1,3.7,10.062,1.7,1.7,0,0,0,.569,1.319,10.909,10.909,0,0,1,.9.978l.138-.083c.011-.164.031-.328.031-.491q0-5.6-.012-11.192a1.274,1.274,0,0,0-.313-.806q-3.013-3.071-6.074-6.094a1.374,1.374,0,0,0-.789-.386A18.126,18.126,0,0,1,2.586,28.925,16.6,16.6,0,0,1,0,20.288c-.019-.958.389-1.353,1.345-1.331A18.517,18.517,0,0,1,18.926,34.289a3.7,3.7,0,0,1,.12.986,3.079,3.079,0,0,0,1.25,2.71c1.294,1.184,2.5,2.471,3.736,3.713.131.13.272.248.509.469,0-1.664.009-3.2-.013-4.732a.861.861,0,0,0-.284-.483A25.613,25.613,0,0,1,17.3,20.96,26.174,26.174,0,0,1,23.4,1.549C23.855,1,24.406.535,24.914.03h.709c.664.65,1.389,1.25,1.983,1.961a25.546,25.546,0,0,1,5.743,13.045c.078.541.148,1.083.2,1.627a.89.89,0,0,1-.781,1.094c-.527.045-.9-.288-.961-.938A24.623,24.623,0,0,0,27.433,4.63c-.625-.889-1.345-1.719-2.086-2.656a24.024,24.024,0,0,0-6.26,14.2,24.183,24.183,0,0,0,5.469,18.283V13.583a5.189,5.189,0,0,1,.014-.644.857.857,0,0,1,1.663-.177,2.678,2.678,0,0,1,.075.752q0,10.284,0,20.566v.614l.177.072c.688-1.027,1.427-2.031,2.055-3.088a24.708,24.708,0,0,0,3.282-10.524c.061-.692.4-1.049.95-1.011s.856.445.8,1.08a25.44,25.44,0,0,1-6,14.822,4.644,4.644,0,0,0-1.284,3.469c.1,2.813.03,5.625.03,8.438V48.7c.724-.7,1.32-1.181,1.378-2.256A24.943,24.943,0,0,1,47.84,23.58,32.469,32.469,0,0,1,51.5,23.2c.964-.07,1.406.389,1.4,1.356a23.891,23.891,0,0,1-5.905,15.47.865.865,0,0,1-1.325.194.891.891,0,0,1,.011-1.352,23.178,23.178,0,0,0,4.474-8.019,20.588,20.588,0,0,0,.986-5.8c-9.416-.128-20.545,8.524-21.6,20.424.191-.18.347-.313.494-.469q6.563-6.563,13.109-13.126c.625-.625,1.133-.742,1.552-.344s.328.938-.325,1.6q-6.6,6.608-13.193,13.215a5.759,5.759,0,0,1-.5.4l.083.186c.458-.059.92-.1,1.375-.18A22.55,22.55,0,0,0,42.33,42.1c.122-.1.241-.2.367-.291a.883.883,0,0,1,1.3.113.831.831,0,0,1-.194,1.238,41.667,41.667,0,0,1-3.45,2.4,22.989,22.989,0,0,1-11.213,3.242,1.18,1.18,0,0,0-.7.3A23.372,23.372,0,0,0,26.7,50.848a1.531,1.531,0,0,0-.378.9c-.03,2.344-.028,4.688-.008,7.032a1.365,1.365,0,0,1-.575,1.25ZM15.826,35.984c-.22-.231-.361-.388-.511-.538q-4.421-4.43-8.843-8.857a3.419,3.419,0,0,1-.4-.43.808.808,0,0,1,.07-1.117.814.814,0,0,1,1.156-.08,4.278,4.278,0,0,1,.425.4L16.7,34.348c.138.139.281.27.5.469-1.175-8.4-9.018-14.086-15.376-14.011C1.967,27.278,7.53,34.716,15.826,35.984Z" transform="translate(0.004 -0.03)" fill="#333"/>
    </g>
  </g>
</svg>
