<svg xmlns="http://www.w3.org/2000/svg" width="48.569" height="60" viewBox="0 0 48.569 60">
  <g id="Group_1686" data-name="Group 1686" transform="translate(235.137 -4516)">
    <g id="Layer_2" data-name="Layer 2" transform="translate(-229.656 4516)">
      <g id="Layer_1" data-name="Layer 1" transform="translate(0)">
        <path id="Path_4525" data-name="Path 4525" d="M140.7,0a13.711,13.711,0,0,1,2.24.939,5.188,5.188,0,0,1,1.933,6.34A5.272,5.272,0,1,1,138.622.194c.224-.061.446-.13.668-.194Zm2.223,5.245A2.927,2.927,0,1,0,140,8.2,2.927,2.927,0,0,0,142.919,5.245Z" transform="translate(-113.628)" fill="#333"/>
        <path id="Path_4526" data-name="Path 4526" d="M15.233,105.6a3.535,3.535,0,0,1-2.337-3.373,3.452,3.452,0,0,1,3.348-3.467c3.221-.039,6.443-.03,9.664,0a3.5,3.5,0,0,1,1.507,6.59.736.736,0,0,0-.47.8c.023,1.171-.011,2.348.02,3.514a2.155,2.155,0,0,0,.269.98q7.019,12.094,14.064,24.175a5.435,5.435,0,0,1-.806,6.912,5.242,5.242,0,0,1-3.7,1.532c-10.464.012-20.93.034-31.394,0a5.468,5.468,0,0,1-4.652-8.229q5.9-10.073,11.77-20.163c.826-1.409,1.658-2.827,2.464-4.253a1.943,1.943,0,0,0,.239-.873C15.246,108.359,15.233,106.973,15.233,105.6Zm2.348.2c0,1.485.02,2.946-.014,4.4a2.613,2.613,0,0,1-.313,1.155c-.775,1.4-1.6,2.774-2.4,4.162q-5.967,10.237-11.94,20.47a3.152,3.152,0,0,0,2.753,4.94q15.4,0,30.812-.009a3.872,3.872,0,0,0,1.205-.18,3.089,3.089,0,0,0,1.625-4.674c-4.43-7.623-8.833-15.262-13.335-22.841a8.043,8.043,0,0,1-1.382-5.166,20.12,20.12,0,0,0,.014-2.259Zm3.514-4.715H16.651c-.862,0-1.392.437-1.409,1.141-.017.728.529,1.2,1.409,1.2h8.886c.878,0,1.431-.47,1.409-1.2-.019-.7-.553-1.138-1.409-1.141-1.485,0-2.966,0-4.447,0Z" transform="translate(0.001 -83.279)" fill="#333"/>
        <path id="Path_4527" data-name="Path 4527" d="M74.974,39.018a3.807,3.807,0,1,1-3.766-3.829A3.807,3.807,0,0,1,74.974,39.018Zm-3.808,1.44a1.462,1.462,0,1,0-1.46-1.449,1.478,1.478,0,0,0,1.464,1.449Z" transform="translate(-56.816 -29.68)" fill="#333"/>
        <path id="Path_4528" data-name="Path 4528" d="M64.7,278.979,60.473,271.7c-.548.125-1.071.272-1.6.362a16.027,16.027,0,0,1-6.244-.626c-1.672-.376-3.345-.753-5.036-1.03a8.479,8.479,0,0,0-2.268.039A2.77,2.77,0,0,0,42.976,272c-1.151,2.173-2.451,4.269-3.686,6.385-.1.166-.182.337-.313.567.241.013.424.03.607.03,2.284,0,4.568-.008,6.851,0a1.133,1.133,0,0,1,1.108,1.7,1.5,1.5,0,0,1-1.036.6q-4.01.075-8.022.014a2.077,2.077,0,0,1-1.756-3.175c.665-1.233,1.4-2.432,2.105-3.646.9-1.551,1.788-3.113,2.724-4.643a2.6,2.6,0,0,1,.949-.9,9.068,9.068,0,0,1,6.037-.79c2.144.391,4.259.939,6.394,1.393a8.451,8.451,0,0,0,4.114.07,10.013,10.013,0,0,0,1.252-.49,1.159,1.159,0,0,1,1.625.446c1.68,2.858,3.37,5.71,4.992,8.609a2.066,2.066,0,0,1-1.878,3.131c-2.6.025-5.192.011-7.789,0a1.179,1.179,0,1,1-.006-2.339C59.69,278.976,62.129,278.979,64.7,278.979Z" transform="translate(-30.732 -226.018)" fill="#333"/>
        <path id="Path_4529" data-name="Path 4529" d="M129.617,339.514a1.168,1.168,0,1,1-1.16-1.144A1.18,1.18,0,0,1,129.617,339.514Z" transform="translate(-107.358 -285.404)" fill="#333"/>
      </g>
    </g>
    <line id="Line_12" data-name="Line 12" y1="17" x2="46" transform="translate(-233.852 4544.5)" fill="none" stroke="#333" stroke-linecap="round" stroke-width="2"/>
  </g>
</svg>
