<svg xmlns="http://www.w3.org/2000/svg" width="59.307" height="59.306" viewBox="0 0 59.307 59.306">
  <g id="Layer_2" data-name="Layer 2" transform="translate(-0.003)">
    <g id="Layer_1" data-name="Layer 1" transform="translate(0.003)">
      <path id="Path_4519" data-name="Path 4519" d="M23.631,0a4.323,4.323,0,0,1,2.011,1.648q5.194,6.808,10.427,13.594c.071.091.145.179.212.275a.884.884,0,0,1-.116,1.284.867.867,0,0,1-1.266-.24q-2.089-2.7-4.165-5.415Q27.35,6.741,23.965,2.327c-.619-.8-1.14-.814-1.751-.02C16.772,9.4,11.263,16.433,5.91,23.585c-9.358,12.5-2.194,30.714,13.164,33.6a21.29,21.29,0,0,0,22.935-11.1,4.478,4.478,0,0,1,.22-.407.86.86,0,0,1,1.156-.326.824.824,0,0,1,.376,1.1,5.678,5.678,0,0,1-.447.874,22.672,22.672,0,0,1-17.67,11.821A23.061,23.061,0,0,1,.343,40.134,22.652,22.652,0,0,1,4.872,22.05Q12.727,11.773,20.618,1.521A3.861,3.861,0,0,1,22.592,0Z" transform="translate(-0.003)" fill="#333"/>
      <path id="Path_4520" data-name="Path 4520" d="M211.457,116.246c-.155.752-.271,1.513-.464,2.254a14,14,0,0,1-27.23-.528,1.139,1.139,0,0,0-.719-.928,23.069,23.069,0,0,1-2.425-1.225.89.89,0,0,1,0-1.7c.814-.478,1.671-.88,2.527-1.278a.981.981,0,0,0,.59-.763c1.425-5.811,5.047-9.489,10.877-10.815a13.985,13.985,0,0,1,16.617,11.247c.067.4.155.789.223,1.184Zm-28.672-1.275a12.985,12.985,0,0,0,1.368.687,1.871,1.871,0,0,1,1.255,1.674,12.262,12.262,0,1,0-.054-4.442,1.533,1.533,0,0,1-.989,1.289C183.859,114.385,183.382,114.669,182.785,114.971Z" transform="translate(-152.15 -85.323)" fill="#333"/>
      <path id="Path_4521" data-name="Path 4521" d="M24.247,230.367a17.484,17.484,0,0,0,1.6,6.452,17.817,17.817,0,0,0,17.235,10.35,17.56,17.56,0,0,0,14.382-8.747c.1-.164.186-.339.3-.5a.844.844,0,0,1,1.153-.33.877.877,0,0,1,.337,1.2,5.374,5.374,0,0,1-.285.5,19.2,19.2,0,0,1-15.117,9.54A19.533,19.533,0,0,1,22.682,232.1c-.118-.839-.167-1.69-.2-2.536-.032-.792.326-1.117,1.133-1.094a7.427,7.427,0,0,1,4.075,1.3c.317.218.645.429.939.676a6.3,6.3,0,0,0,8.142.025,7.943,7.943,0,0,1,3.569-1.823,7.838,7.838,0,0,1,6.328,1.286c.453.328.905.659,1.363.979a5.491,5.491,0,0,0,2.853,1.007c.685.045,1.044.384,1.017.928s-.422.839-1.112.8a7.086,7.086,0,0,1-3.672-1.264c-.48-.325-.939-.678-1.413-1.009a6.091,6.091,0,0,0-7.243,0c-.443.309-.87.639-1.317.944a7.818,7.818,0,0,1-8.866,0c-.559-.379-1.071-.836-1.659-1.157-.712-.391-1.482-.678-2.228-1.009Z" transform="translate(-19 -193.122)" fill="#333"/>
      <path id="Path_4522" data-name="Path 4522" d="M238.307,167.147v4.165c-.019.619-.357,1-.89.986a.863.863,0,0,1-.843-.97c-.011-1.2,0-2.394,0-3.59v-3.127a.867.867,0,0,1,.566-.913.9.9,0,0,1,1.063.364q1.522,2.041,3.057,4.074c.136.183.28.361.486.627.019-.254.039-.413.04-.572V164.6a.869.869,0,1,1,1.73-.015c.009,2.257,0,4.515,0,6.774a.844.844,0,0,1-.594.893.914.914,0,0,1-1.054-.4q-1.538-2.066-3.094-4.12C238.658,167.573,238.526,167.419,238.307,167.147Z" transform="translate(-199.966 -138.322)" fill="#333"/>
      <path id="Path_4523" data-name="Path 4523" d="M297.108,172.289a4.332,4.332,0,1,1,4.417-4.2A4.332,4.332,0,0,1,297.108,172.289Zm.067-1.736a2.6,2.6,0,1,0-1.84-.772A2.6,2.6,0,0,0,297.174,170.553Z" transform="translate(-247.55 -138.308)" fill="#333"/>
    </g>
  </g>
</svg>
