<svg xmlns="http://www.w3.org/2000/svg" width="263.454" height="205.064" viewBox="0 0 263.454 205.064">
  <g id="Group_1669" data-name="Group 1669" transform="translate(0 0)">
    <g id="Group_1639" data-name="Group 1639" transform="translate(6.608 0)">
      <path id="Path_5782" data-name="Path 5782" d="M101.108,0a101.076,101.076,0,1,1-54.8,16.123A101.108,101.108,0,0,1,101.108,0Z" transform="translate(1.467 1.713)" fill="none"/>
      <g id="Group_1638" data-name="Group 1638">
        <path id="Path_4385" data-name="Path 4385" d="M486.072,218.874c.151.941.376.557.454.69C486.166,218,486,218.927,486.072,218.874Z" transform="translate(-282.179 -133.377)" fill="#fff"/>
        <path id="Path_4386" data-name="Path 4386" d="M480.638,200.686l.205.224-1.042-2.08Z" transform="translate(-281.188 -130.236)" fill="#fff"/>
        <path id="Path_4387" data-name="Path 4387" d="M474.159,184.985c.135,1.469,2.394,4.729,3.155,7.245l.058.439.817.941c-.647-1.45-1.361-3.129-2.133-4.649S474.587,186.018,474.159,184.985Z" transform="translate(-280.294 -128.042)" fill="#fff"/>
        <path id="Path_4388" data-name="Path 4388" d="M470.709,176.2c.083.518-1.015-1.378.889,1.61l-.128-.311C471.3,177.228,471.079,176.851,470.709,176.2Z" transform="translate(-279.709 -126.63)" fill="#fff"/>
        <path id="Path_4389" data-name="Path 4389" d="M471.643,177.724c.81,1.33-.381-.958,0,0Z" transform="translate(-279.883 -126.853)" fill="#fff"/>
        <path id="Path_4390" data-name="Path 4390" d="M466.925,170.436l1.278,1.612c-.141-.419-1.133-1.957-.688-1.437C466.269,168.906,466.418,169.336,466.925,170.436Z" transform="translate(-279.088 -125.583)" fill="#fff"/>
        <path id="Path_4391" data-name="Path 4391" d="M465.338,168.965c.231.268.458.539.668.823A1.923,1.923,0,0,0,465.338,168.965Z" transform="translate(-278.896 -125.503)" fill="#fff"/>
        <path id="Path_4392" data-name="Path 4392" d="M467.5,171.727l-1.372-1.784c.1.293-.019.409.617.827C466.525,170.7,466.888,170.989,467.5,171.727Z" transform="translate(-279.022 -125.658)" fill="#fff"/>
        <path id="Path_4393" data-name="Path 4393" d="M468.523,173.372a11.811,11.811,0,0,1,.676,1.33c.08.253-.019.146-.65-.664,1.061,1.633,1.552,2.31,1.561,2.137a3.459,3.459,0,0,0-.385-.855A17.583,17.583,0,0,0,468.523,173.372Z" transform="translate(-279.401 -126.201)" fill="#fff"/>
        <path id="Path_4394" data-name="Path 4394" d="M473.2,184.479c.194.467.392.932.554,1.414l.706,1.112a14.787,14.787,0,0,1-.7-1.54C473.5,184.883,473.242,184.4,473.2,184.479Z" transform="translate(-280.142 -127.96)" fill="#fff"/>
        <path id="Path_4395" data-name="Path 4395" d="M457.931,158.446c-.165-.025.249.7.248.9.375.342.719.709,1.068,1.075A14.737,14.737,0,0,1,457.931,158.446Z" transform="translate(-277.716 -123.836)" fill="#fff"/>
        <path id="Path_4396" data-name="Path 4396" d="M457.923,159.223l-1.645-1.559C457.608,159.176,457.92,159.394,457.923,159.223Z" transform="translate(-277.46 -123.712)" fill="#fff"/>
        <path id="Path_4397" data-name="Path 4397" d="M464.467,168.891l.625.687.59.714,1.181,1.432c-.922-1.154-1.824-2.314-2.821-3.4Z" transform="translate(-278.691 -125.401)" fill="#fff"/>
        <path id="Path_4398" data-name="Path 4398" d="M450.692,150.871c.367.236.719.49,1.081.735l-.937-.682-.971-.641Z" transform="translate(-276.444 -122.542)" fill="#fff"/>
        <path id="Path_4399" data-name="Path 4399" d="M445.122,145.9c.865.458-.78-1.1.075-.547a31.075,31.075,0,0,0-3.4-2.331A23.629,23.629,0,0,1,445.122,145.9Z" transform="translate(-275.166 -121.391)" fill="#fff"/>
        <path id="Path_4400" data-name="Path 4400" d="M439.726,141.789c.537.345,1.116.674,1.746,1.035A20.274,20.274,0,0,0,439.726,141.789Z" transform="translate(-274.837 -121.196)" fill="#fff"/>
        <path id="Path_4401" data-name="Path 4401" d="M453,154.014a4.944,4.944,0,0,0-1.038-1.478l.416.842Z" transform="translate(-276.777 -122.899)" fill="#fff"/>
        <path id="Path_4402" data-name="Path 4402" d="M452.223,153.308l-.015-.029L450.87,151.9Z" transform="translate(-276.603 -122.799)" fill="#fff"/>
        <path id="Path_4403" data-name="Path 4403" d="M453.356,154.452l-.156-.16A.261.261,0,0,0,453.356,154.452Z" transform="translate(-276.972 -123.178)" fill="#fff"/>
        <path id="Path_4404" data-name="Path 4404" d="M460.206,162.914c-.966-.922-2.833-2.93-1.352-.711C459.608,162.806,458.757,161.533,460.206,162.914Z" transform="translate(-277.781 -124.272)" fill="#fff"/>
        <path id="Path_4405" data-name="Path 4405" d="M453.985,155.718c.544.581,1.039,1.208,1.56,1.809.027-.088-.177-.486.323-.054C455.238,156.888,454.635,156.28,453.985,155.718Z" transform="translate(-277.097 -123.404)" fill="#fff"/>
        <path id="Path_4406" data-name="Path 4406" d="M452.927,154.808l.89.766-.6-.647Z" transform="translate(-276.929 -123.259)" fill="#fff"/>
        <path id="Path_4407" data-name="Path 4407" d="M442.834,144.7c-.439-.281-.878-.6-1.331-.951l-1.468-1.068c.524.443,1.082.861,1.6,1.319l1.565,1.334C443.408,145.379,443.971,145.63,442.834,144.7Z" transform="translate(-274.886 -121.337)" fill="#fff"/>
        <path id="Path_4408" data-name="Path 4408" d="M447.846,149.086l-.182-.143C447.752,149.057,447.83,149.14,447.846,149.086Z" transform="translate(-276.095 -122.33)" fill="#fff"/>
        <path id="Path_4409" data-name="Path 4409" d="M427.654,134.3l.144.152a.469.469,0,0,1,.066-.019Z" transform="translate(-272.924 -120.009)" fill="#fff"/>
        <path id="Path_4410" data-name="Path 4410" d="M443.927,146.018a9.653,9.653,0,0,0,1.783,1.347c-.611-.471-1.25-.979-1.924-1.537C443.694,145.806,443.664,145.817,443.927,146.018Z" transform="translate(-275.47 -121.835)" fill="#fff"/>
        <path id="Path_4411" data-name="Path 4411" d="M436.256,139.44c.411.35.881.741,1.357,1.175A5.9,5.9,0,0,0,436.256,139.44Z" transform="translate(-274.287 -120.824)" fill="#fff"/>
        <path id="Path_4412" data-name="Path 4412" d="M447.417,148.571l.122.094C447.333,148.389,447.343,148.441,447.417,148.571Z" transform="translate(-276.048 -122.254)" fill="#fff"/>
        <path id="Path_4413" data-name="Path 4413" d="M447.213,148.443c-.421-.327-.775-.555-1.128-.787.479.4.927.775,1.329,1.083A2.676,2.676,0,0,1,447.213,148.443Z" transform="translate(-275.845 -122.126)" fill="#fff"/>
        <path id="Path_4414" data-name="Path 4414" d="M422.2,133.809a4.028,4.028,0,0,1,1.715.567,15.684,15.684,0,0,1,1.43.762,16.781,16.781,0,0,1,1.426,1.027c2.035,1.01,1.266-.529-.189-2.021-.128.078-.158.123-2.31-.863.684.479,4.309,2.969,2.491,2.144-1.35-.767-1.9-1.079-2.255-1.341s-.512-.463-1.14-.892c.48.461-.448.093-1.445-.291-.987-.4-2.1-.722-1.905-.358.844.327,1.651.73,2.472,1.11C422.5,133.746,421.58,133.384,422.2,133.809Z" transform="translate(-271.711 -119.706)" fill="#fff"/>
        <path id="Path_4415" data-name="Path 4415" d="M431.655,136.871l.823.521c-.881-.681-1.5-1.184-2.638-2.135-1.455-.738-1.793-.825-1.936-.8,1.349.86,2.727,1.674,4.049,2.572Z" transform="translate(-272.964 -120.033)" fill="#fff"/>
        <path id="Path_4416" data-name="Path 4416" d="M436.93,140.439c-.768-.242-2.788-1.41-1.79-.353a17.167,17.167,0,0,0,1.926,1.212,7.027,7.027,0,0,1,1.269.669c-3.712-2.712,1.155.664-1.4-1.479.753.5,1.414.985,2.035,1.438-.64-.529-1.253-1.049-1.823-1.549l.073.079.018.012-.007,0c.136.15.176.208.009.055a.937.937,0,0,1-.081-.053.518.518,0,0,1-.233-.034c-1.029-.856-.122-.19.233.034.021,0,.059.008.072,0l-.012-.013c-.623-.454-1.277-.866-1.93-1.275l-1.954-1.236C434.115,138.544,435.157,139.188,436.93,140.439Z" transform="translate(-273.825 -120.587)" fill="#fff"/>
        <path id="Path_4417" data-name="Path 4417" d="M456.464,160.616c-.075-.122-.055-.131-.045-.154C456.194,160.267,456.1,160.2,456.464,160.616Z" transform="translate(-277.451 -124.131)" fill="#fff"/>
        <path id="Path_4418" data-name="Path 4418" d="M455,158.465a6.61,6.61,0,0,1,1.225,1.168c.558.756-.112.091-.153.193.5.424,1.662,1.572.431-.061l-.247-.213a19.285,19.285,0,0,1-2.218-3.244A8.424,8.424,0,0,0,455,158.465Z" transform="translate(-277.1 -123.495)" fill="#fff"/>
        <path id="Path_4419" data-name="Path 4419" d="M446.148,148.982c-.954-.844-1.98-1.6-2.986-2.382l1.321,1.441.027-.182C446.1,149.326,445.86,148.9,446.148,148.982Z" transform="translate(-275.382 -121.959)" fill="#fff"/>
        <path id="Path_4420" data-name="Path 4420" d="M427,133.732l.6-.005c-.7-.276-1.444-.475-2.161-.713Z" transform="translate(-272.573 -119.806)" fill="#fff"/>
        <path id="Path_4421" data-name="Path 4421" d="M421.884,130.916l.289-.155c-.414-.162-.842-.3-1.261-.443Z" transform="translate(-271.856 -119.378)" fill="#fff"/>
        <path id="Path_4422" data-name="Path 4422" d="M275.031,315.326l.753.8C275.435,315.74,275.208,315.5,275.031,315.326Z" transform="translate(-248.737 -148.698)" fill="#fff"/>
        <path id="Path_4423" data-name="Path 4423" d="M269.247,307.852l-.226-.078C269.3,308.026,269.434,308.116,269.247,307.852Z" transform="translate(-247.784 -147.501)" fill="#fff"/>
        <path id="Path_4424" data-name="Path 4424" d="M284.944,147.311c-1.394.906-3.045,1.853-2.684,1.946l.582-.118A20.27,20.27,0,0,1,284.944,147.311Z" transform="translate(-249.874 -122.071)" fill="#fff"/>
        <path id="Path_4425" data-name="Path 4425" d="M245.656,234.882l.1-.47-.219-1.106C245.573,233.782,245.582,234.319,245.656,234.882Z" transform="translate(-244.063 -135.7)" fill="#fff"/>
        <path id="Path_4426" data-name="Path 4426" d="M247.1,236.572l-.226,2.109C246.951,238.206,247.027,237.527,247.1,236.572Z" transform="translate(-244.275 -136.217)" fill="#fff"/>
        <path id="Path_4427" data-name="Path 4427" d="M315.617,346.089c.424.1.846.192,1.28.258C315.094,345.519,315.827,346.012,315.617,346.089Z" transform="translate(-255.169 -153.539)" fill="#fff"/>
        <path id="Path_4428" data-name="Path 4428" d="M362.671,117.406c-1.423-.067-2.559-.077-3.555-.056C360.841,117.462,362.224,117.673,362.671,117.406Z" transform="translate(-262.062 -117.322)" fill="#fff"/>
        <path id="Path_4429" data-name="Path 4429" d="M269.694,314.8c.48.5.714.693.754.634C269.958,314.917,269.658,314.641,269.694,314.8Z" transform="translate(-247.89 -148.607)" fill="#fff"/>
        <path id="Path_4430" data-name="Path 4430" d="M354.244,117.671l.757.006a31.114,31.114,0,0,1,3.343-.33A14.591,14.591,0,0,0,354.244,117.671Z" transform="translate(-261.29 -117.318)" fill="#fff"/>
        <path id="Path_4431" data-name="Path 4431" d="M472.965,288.835l.174-.311C473.116,288.475,473.052,288.62,472.965,288.835Z" transform="translate(-280.105 -144.449)" fill="#fff"/>
        <path id="Path_4432" data-name="Path 4432" d="M487.33,236.056c.035.463.062,1.219.092,1.932C487.43,237.641,487.407,237.057,487.33,236.056Z" transform="translate(-282.381 -136.135)" fill="#fff"/>
        <path id="Path_4433" data-name="Path 4433" d="M399.927,121.966c1.026.283.174.006,0,0Z" transform="translate(-268.53 -118.055)" fill="#fff"/>
        <path id="Path_4434" data-name="Path 4434" d="M405.232,125.169c-.224-.036-.4-.047-.448.01A.89.89,0,0,1,405.232,125.169Z" transform="translate(-269.3 -118.558)" fill="#fff"/>
        <path id="Path_4435" data-name="Path 4435" d="M342.226,121.75l-.089.015C342.453,121.766,342.4,121.764,342.226,121.75Z" transform="translate(-259.372 -118.021)" fill="#fff"/>
        <path id="Path_4436" data-name="Path 4436" d="M401.455,122.595c-.369-.157-.8-.33-1.268-.5C400.391,122.181,400.774,122.338,401.455,122.595Z" transform="translate(-268.571 -118.075)" fill="#fff"/>
        <path id="Path_4437" data-name="Path 4437" d="M401.5,122.448l.876.313C402.52,122.754,402.416,122.687,401.5,122.448Z" transform="translate(-268.779 -118.131)" fill="#fff"/>
        <path id="Path_4438" data-name="Path 4438" d="M398.222,121.528c.588.153,1.133.314,1.654.477-.2-.074-.276-.113-.219-.109Z" transform="translate(-268.26 -117.985)" fill="#fff"/>
        <path id="Path_4439" data-name="Path 4439" d="M400.136,353.388l.22-.036C401.32,352.935,400.887,353.085,400.136,353.388Z" transform="translate(-268.563 -154.683)" fill="#fff"/>
        <path id="Path_4440" data-name="Path 4440" d="M266.977,173.969l.054-.105-.1.12Z" transform="translate(-247.454 -126.279)" fill="#fff"/>
        <path id="Path_4441" data-name="Path 4441" d="M264.859,177.23a8.954,8.954,0,0,1,1.748-3.224c-.468.178-.954.35-1.414.542Z" transform="translate(-247.125 -126.302)" fill="#fff"/>
        <path id="Path_4442" data-name="Path 4442" d="M283.631,297.194l-1.811-1.863c2.674,1.661,4.307,3.187,2.686,1.361-.218.126-.81-.206-1.592-.769a28.481,28.481,0,0,1-2.681-2.193c-.93-.838-1.86-1.675-2.616-2.276-.724-.633-1.283-1.023-1.514-.92l-1.059-1.352c.337.353.432.37.764.72-2.01-2.657-2.213-1.288-5-4.566-.926-1.177-1.452-2.093-.731-1.37l-2.283-2.43c-.587-.77-.316-.679.277.078-1.075-1.3-2.06-2.679-3.1-4.017l.045.013c-.559-.49-1.631-1.749-2.167-2.36-.6-1.152.444.486.358.145-.576-.744-1.182-1.472-1.739-2.233-.189-.559.063-.364.489.173a21.243,21.243,0,0,1,1.607,2.2,5.171,5.171,0,0,0-1.321-2.543,20.275,20.275,0,0,1-2.6-4.412c.456.755.964,1.479,1.442,2.219A14.387,14.387,0,0,0,260,268.1c-.461-1-1.02-2.124-1.568-3.509.169.687,2.055,5.665.423,3.1a19.134,19.134,0,0,0-1.769-3.179c.294-.164-.459-1.577-1.33-3.385l.465-.06a17.126,17.126,0,0,0-1.027-1.695,10.442,10.442,0,0,1-.774-1.086c-.879-2.257-.752-2.841-.655-3.481-1.214-3.662.368,2.71-1.232-1.58-.227-.773-.455-1.483-.694-2.167-.213-.693-.421-1.367-.656-2.052-.462-1.375-1.044-2.8-1.595-4.655-.383-2.233.358.318.291-.5l-.818-1.863c-.108-.478.036-.348.109-.282-.495-1.619-.473-.037-1.1-2.629-.295-.309-.417-1.684-.5-3.38-.03-.85-.074-1.776-.172-2.689a20.742,20.742,0,0,0-.462-2.619c.056-.82.305.362.455.1-.742-4.467-.635-3.824-1.248-7.509.056-1.059.109-2.115.243-3.168-.369,2.326-.721-.638-1.007-3.281-.174.827-.326,1.537-.4,2.016l-.088-2.108c-.036-.7,0-1.405,0-2.11.105-.5.231-.07.372.626l-.056-.774c.262-1.49.467-.692.646.39l-.371,1.49c.256,1.045.541,2.013.805,1.8a11.4,11.4,0,0,1-.1-1.365c.07.271.133.444.179.321a7.708,7.708,0,0,0-.121-1.259l.557-.916-.183-.239.331-2.693c.1-.9.295-1.784.436-2.674-.024-.978-.048-1.927-.072-2.9.016-.966.033-1.956.072-3.019l.076-1.657c.04-.573.124-1.164.2-1.788s.174-1.277.282-1.967.22-1.418.412-2.173c-.047,1.579.491.462.889.649a10.367,10.367,0,0,0-.829,3.316c-.094.688-.215,1.417-.308,2.178s-.191,1.547-.345,2.33c.32-1.636.462-1.237.465-.809.13-1.9.46-3.765.712-5.655.158.1.287-.178.433-.661s.361-1.155.619-1.853c-.483.454-.321-.6.013-2.057l.278-1.151.353-1.181c.231-.78.443-1.522.57-2.093.267-.062.324.542-.6,3.212,1.474-2.792.395-4.116,1.934-6.837a4.08,4.08,0,0,0-.388,1.284,23.677,23.677,0,0,1,1.083-3.09c.424-.987.838-1.633.739-1.171l-.268.634c.474-1.044,1.057-2.366,1.66-3.775l1.971-4.219c.635-1.361,1.286-2.579,1.7-3.548a6.421,6.421,0,0,0,.648-1.863,2.736,2.736,0,0,1,.278,1.18c.819-2.667,1.68-5.375,2.737-8.017.013.883,2.568-.708.663,2.589.337-.429.714-.91,1.148-1.532s.911-1.4,1.547-2.356c-.511.543-1.707,1.059-1.138.209,1.076-.953,1.427-1.293,1.821-1.706l.715-.756c.312-.325.717-.76,1.371-1.335-.8.788-.629-.661.531-2.013-.086.289.7.394.348.942l1.107-1.939c.372-.647.789-1.259,1.185-1.893-.64.905.364.585,1.187.016-.21.115.433-.58,1.219-1.417.806-.819,1.8-1.739,2.18-2.181l-1.449,1.178a20.7,20.7,0,0,0,3.189-3.79c.358-.513.717-1.03,1.218-1.624a13.7,13.7,0,0,1,2.112-2.047c-.364.507-.5,1.691,1.5.189l.744-1.22a18.955,18.955,0,0,1,1.3-1.881,23.284,23.284,0,0,1,4.257-4.369l.836-.28c.9-.7,1.785-1.417,2.728-2.053-.776.768-2.181,2.312-3.706,3.861-.775.758-1.505,1.627-2.224,2.388s-1.386,1.472-1.939,2.054a13.627,13.627,0,0,0,2.787-1.755c.91-.4-1.018,1.156-1.662,1.646,1.75-1.231,3.477-2.488,5.306-3.6-.248-.116.709-.893,1.68-1.669,1-.732,2.02-1.446,1.813-1.553-1.954,1.293-3.769,2.783-5.625,4.188-.252-.113.4-.943,1.609-2.065a22.4,22.4,0,0,1,2.2-1.818c.864-.6,1.823-1.22,2.824-1.793,1.1-.438-.335,1.171-.17,1.254a13.422,13.422,0,0,1,2.016-1.4,16.28,16.28,0,0,1,2.049-1.08l-1.594,1.13a17.848,17.848,0,0,0,2.925-1.767,12.65,12.65,0,0,1,3.436-1.62,12.416,12.416,0,0,1,1.925-.573c.672-.153,1.224-.3,1.256-.462-1.791.156-2.791-1.22-1.861-2.036l3.008-.905c.367-.106.737-.22,1.1-.316l1.058-.242c.661-.146,1.214-.257,1.525-.3,1.792-.187-2.15,1.816-.618,1.658.016-.141.872-.61,1.235-.792,1.086-.266-.3.528,1.953-.329.237-.575,4.725-1.362.972-.712a19.154,19.154,0,0,1,2.392-.714l2.727-.656c-.468-.044.072-.444,1.024-.921a17.266,17.266,0,0,1,3.482-1.329c-.115.144.446.2.715.22l3.263-.559c1-.128,1.924-.212,2.837-.311s1.814-.2,2.774-.287c.961-.061,1.975-.135,3.109-.231.427.07,2.62.044,1.7.313a15.127,15.127,0,0,1,2.637-.353c2.718.314-3.114.175-1.031.594.162-.26,3.592-.571,5.591-.647a6.522,6.522,0,0,0-2.788-.185c-1.326.1-2.82.284-3.813.406-.021-.293.83-.624,2.294-.938a25.85,25.85,0,0,1,2.62-.429c1-.091,2.127-.164,3.332-.214,1.916-.064,2.323.122,2.339.209.014.1-.365.189-.033.169,1.786.141,3.062.173,4.07.154,1,.028,1.737-.005,2.435-.034a19.806,19.806,0,0,1,2.214,0,21.584,21.584,0,0,1,3.353.605c2.274.757-.024.751.449,1.1a35.6,35.6,0,0,1-3.74-.672c-1.046-.2-1.969-.395-3.014-.507l2.547.472a24.6,24.6,0,0,1-4.16-.369,24.184,24.184,0,0,0,2.762.476l2.146.279,2.442.417c.848.15,1.728.28,2.6.456l2.594.587c.847.207,1.684.368,2.451.609s1.495.456,2.146.671c.972.132,2.637.444,1.909.093l-1.695-.4c-1.471-.709,3.285.45,1.189-.259,1.171.175,2.382.479,3.716.8.665.168,1.357.354,2.074.577.706.255,1.44.543,2.2.874l.43.619a10.434,10.434,0,0,0-2.849-1.2,20.04,20.04,0,0,1,2.982,1.276c.582.274,1.174.528,1.715.734a4.643,4.643,0,0,0,1.428.392c-.673-.392-1.336-.813-2.031-1.162,1.15.3,2.411.722,3.751,1.15.663.229,1.355.443,2.019.741s1.329.619,1.977.974c-1.026-.969-.624-.263-2.313-1.62,1.423,1.274-6.95-3.018-4.5-1.273a13.132,13.132,0,0,0-2.684-1.441c-.935-.4-1.942-.848-3.22-1.491.04.161.868.562-1.479-.266a4.8,4.8,0,0,1-.557-.049l-.157-.061.125.058c-.109-.013-.119-.012.047.021a6.227,6.227,0,0,1,1.139.592,24.88,24.88,0,0,1-3.151-.677c-1.274-.282-2.554-.586-3.215-.677-1.4-.445.633,0-.1-.351-.659-.1-1.32-.18-1.988-.228-.116-.345-3.709-1.336-.274-.778l-3.056-.677a28,28,0,0,0-3-.7,21.765,21.765,0,0,0-2.842-.393c-1.462-.236-3.745-.082-2.44-.179-.817-.057-1.631-.132-2.448-.174l-2.453-.062-.04-.081c-2.411-.231-4.908-.07-7.477-.057-2.57.162-5.22.185-8,.2l-2.586.337c-.953.153-2.042.3-3.4.447l-.566-.2-4,.629a11.973,11.973,0,0,0-3.071.693,11.166,11.166,0,0,0-2.607.289c-.551.107-1.147.238-1.771.385s-1.259.368-1.912.566c-1.3.419-2.655.81-3.871,1.266s-2.334.858-3.217,1.136l-.008.378-.895.313-.874.367-1.771.773-1.863.845c-.638.311-1.29.667-1.988,1.029l.306.2c-1.162.7-2.779,1.335-4.506,2.2l-2.73,1.306c-.921.486-1.844,1.022-2.76,1.574a7.659,7.659,0,0,1,1.833-1.111,27.462,27.462,0,0,0-3.481,1.813c-1.114.719-2.18,1.532-3.237,2.32-1.072.771-2.05,1.643-3.052,2.408s-2,1.468-2.966,2.118a13.523,13.523,0,0,1-2.174,1.767,2.65,2.65,0,0,0,.211-.194l-.37.3c-.436.274-.87.576-1.324.922l1.127-.761c-.685.57-1.646,1.524-2.583,2.46l-.646.13-.222.212c-1.053.781-.668.815.019.537a12.152,12.152,0,0,0-1.122,1.354A5.2,5.2,0,0,0,273.659,148c-.311.337-.629.68-.962.978a3.983,3.983,0,0,1-1,.742,32.094,32.094,0,0,1-2.322,2.951,10.608,10.608,0,0,0-1.905,3.093c-.089-.014-.365.26.085-.289a18.232,18.232,0,0,0-2.6,3.359l-.717.242-.736,1.45-.671,1.485c-1.309,1.454-1.9,2.046-1.072.258-.555,1.04-.962,1.756-1.272,2.315l-.715,1.346a35.744,35.744,0,0,0-1.587,3.264l-.145-.308c-.679,1.251-1.447,3.41-2.061,4.051a29.283,29.283,0,0,0-1.952,3.408c-.2.39-.419.8-.622,1.232l-.608,1.369-1.312,3c-1.678,4.24-3.326,9.149-4.532,13.066.605-.663.25.225-.139,1.351-.363,1.134-.8,2.5-.526,2.727-.289.425-.637,1.521-.519.189-.088.517-.179,1-.272,1.452l-.224,1.3-.428,2.242a14.345,14.345,0,0,0-.307,4.095c-.247.454-.178-.922-.339-.512a6.577,6.577,0,0,1-.151,1.762c-.162.412-.09-.627-.1-1.3-.114,1.066-.167,1.9-.172,2.547a7.312,7.312,0,0,0,.178,1.473,1.511,1.511,0,0,0,.718,1.071,16.976,16.976,0,0,0-.333,2.6,10.465,10.465,0,0,0,.272,2.172c-.193.743-.4,2-.427-.649l-.076,2.049-.048,1.487.04,1.584c.069,2.105.178,4.041.438,4.1a12.324,12.324,0,0,0,.231,2.455l.153,2.016c.049.545.118.991.171,1.437.114.891.236,1.774.48,3.39l-.051-.909c.676,1.2.551,2.657,1.1,5.233l-.068-.063a24.2,24.2,0,0,0,.509,3.008c.139.605.236.915.331,1.222s.188.612.317,1.208l.232,1.151.4,1.79.229-.4c.424.167.7,1.452,1.019,3.111a30.124,30.124,0,0,0,1.576,5.222l-.241-1.241a15.168,15.168,0,0,1,.925,3.486,18.4,18.4,0,0,0,.808,3.581c.125.4-.383-.55-.649-1.07,1.719,4.727.669.414,2.335,3.741.094.72-.946-.527.143,1.743a35.6,35.6,0,0,0,2.365,3.89c.605.86,1.236,1.78,1.8,2.683.283.452.549.9.788,1.333s.487.831.675,1.219c-.265-.729-.523-1.445.545-.083,1.463,2.183,3.509,6.3,5.473,7.8.174.292.217.421.191.459l1.283,1.406c.487.544,1.011,1.144,1.568,1.681a25.689,25.689,0,0,0,2.648,2.439,5.83,5.83,0,0,0,1.616,2.254,32.756,32.756,0,0,0,3.116,2.855c1.128.916,2.177,1.824,2.961,2.482s1.228,1.153,1.049,1.35c.808.651,1.593,1.33,2.421,1.955l2.5,1.853-.194-.011a22.109,22.109,0,0,0,2.058,1.492c.6.388,1.107.7,1.554.948a17.635,17.635,0,0,0,2.2,1.066c.741.541.118.274.023.281a45.985,45.985,0,0,0,5.078,3.154,37.2,37.2,0,0,0,4.869,2.056l.3.532c1.217.467,7.4,4.077,12.981,5.451a1.323,1.323,0,0,1-.645-.045c3.105.828,6.724,2.123,9.962,2.97,3.225.9,6.042,1.33,7.292.905,1.4.162,2.821.156,4.224.232-5.4-.72.868-.449-1.328-.912a21.238,21.238,0,0,1,3.184.538c.772.166.951.332-.359.234l-.4-.109c-1.034.636,6.726.744,6.563,1.117a120.857,120.857,0,0,0,15.9-.562l3.883-.466c1.283-.2,2.554-.433,3.824-.649.633-.117,1.27-.209,1.9-.348l1.87-.431c1.239-.305,2.49-.542,3.7-.913-.418-.056-.831-.1-1.252-.179,1.134-.287,2.251-.636,3.378-.952.917-.149,1.307.028-1.111.723a8.977,8.977,0,0,0,2.5-.768,5.846,5.846,0,0,0,1.487-.833c4.7-1.437-1.621,1.2-.2.713l1.925-.719-.456.1c.751-.375,1.14-.626,1.7-.905.279-.142.6-.284,1.03-.464.422-.2.95-.422,1.65-.7,1.8-.629,1.026-.081,1.73-.348.009.035.253-.045,1.075-.424,1.361-.586,2.7-1.224,4.049-1.834l-1.78.39c.847-.507,1.79-.943,2.266-1.2.467-.275.485-.32-.538-.094a41.132,41.132,0,0,0,8.591-4.282c.867-.491,1.673-1.064,2.452-1.579l2.164-1.447c1.289-.9,2.238-1.62,2.646-1.842.51-.467,1.027-.917,1.56-1.36.518-.462,1.042-.93,1.59-1.4,1.093-.937,2.3-1.86,3.534-2.992-.676.5-1.341.485.836-1.4-.039.348.2.322.626.066a10.9,10.9,0,0,0,1.669-1.331c.646-.591,1.363-1.263,2.053-1.862.344-.3.684-.579,1-.826a7.214,7.214,0,0,1,.854-.633c-.872.619.506-.921,1.76-2.363a15.877,15.877,0,0,0,1.445-1.856c.255-.406.2-.491-.446.036,1.6-1.8.359.114,1.7-1.156,3.378-4.659,7.863-10.02,11.159-16.384-.055-.155-.794.8-.218-.624.808-.986,1.5-2.038,2.252-3.073a5.756,5.756,0,0,0,.369-1.486,3.791,3.791,0,0,1,.292-.833,8.983,8.983,0,0,1,.723-1.309c-.239.292-.595.724-.257-.156a82.437,82.437,0,0,0,6.627-20.125,172.647,172.647,0,0,0,2.716-21.249c-.266,1.925-.269.64-.259-.826-.068.954-.3-.019-.47.17.083-1.971.2-3.953.225-5.939a14.951,14.951,0,0,1-.558-3.629,18.28,18.28,0,0,0-.276-2.1,3.033,3.033,0,0,0-.356-1.16l.334,1.845c-.433-1.2-.584-.3-.76.851-.208,1.159-.414,2.565-.762,2.414a9.365,9.365,0,0,1,.328,2.339c.01.878-.072,1.842-.125,2.857-.075,1.015-.066,2.079-.114,3.172a17.226,17.226,0,0,0,.22,3.342c-.15.986-.2-.852-.364-.326a14.369,14.369,0,0,1-.05,5.055l-.052-.292c-.026.446-.051.876-.075,1.293s-.088.815-.131,1.205l-.273,2.213c-.154,1.41-.418,2.689-.679,3.994-.131.652-.263,1.311-.4,1.994s-.338,1.378-.516,2.119c-.377,1.478-.753,3.127-1.354,5.037l.473-.489a23.611,23.611,0,0,1-.972,2.732c-.033,2.049,1.283-4.666,1.349-2.785a14.1,14.1,0,0,0-1.038,2.717c-.377,1.215-.88,2.626-1.325,4.031-.426,1.412-1.01,2.744-1.458,3.833a6.831,6.831,0,0,1-1.217,2.17c-1.054,2.425.661-.566-.394,1.862l-.468.562-.023.723a8.043,8.043,0,0,1-.995,1.707c-.279.359-.48.523-.573.514.2-.369.482-1.093.667-1.5a33.32,33.32,0,0,0-1.86,3.654,28.606,28.606,0,0,1-1.363,2.667c.442-.721.9-1.436,1.33-2.166-.4.81-.842,1.622-1.284,2.458-.459.826-.877,1.7-1.4,2.52-1.03,1.655-2.02,3.392-3.176,5.012q-.836,1.236-1.665,2.461-.875,1.189-1.73,2.352c-1.1,1.58-2.285,3.011-3.314,4.43l.459-.307c-.4.535-.742.993-1.054,1.377s-.6.688-.855.962c-.5.549-.9.937-1.3,1.335s-.815.817-1.4,1.373-1.326,1.279-2.345,2.335l.125-.177a22.275,22.275,0,0,1-3.047,3.113c.98-1.126-2.306,1.6-.995.146-.5.52-.933.92-1.292,1.24l-.847.789a9.378,9.378,0,0,0-.793.817c-.153.185-.253.338-.479.625a12.952,12.952,0,0,1-1.261,1.394l-.869.319c-.456.481-.689.764-1.1,1.151a16.549,16.549,0,0,1-2.2,1.729c1.884-1.518-1.782.712.3-1.022a38.473,38.473,0,0,0-3.47,2.111c-.995.644-1.862,1.209-2.632,1.74a11.342,11.342,0,0,1-4.228,2.1c-1.078.977.14.443,1.469-.231,1.345-.643,2.707-1.572,2.073-1.086.629-.239.2.175-.613.768a27.144,27.144,0,0,1-2.918,1.69,12.174,12.174,0,0,1-2.92.953c-.6.156-1.276.351-2.083.639-.4.144-.839.311-1.314.507-.484.176-1.008.375-1.578.61.456-.183.465-.245.919-.427a18.689,18.689,0,0,0-2.567,1.071c-.433.2-.881.408-1.357.6a12.7,12.7,0,0,1-1.558.437c-1.052.829-2.778.953-2.95,1.6l4.24-1.629c-1.187.495-2.3,1.095-3.63,1.713a25.343,25.343,0,0,1-5.012,1.591,19.863,19.863,0,0,1,2.27-1.027c-1.239.18-2.252.82-3.549.952.052-.162.418-.306.959-.514s1.268-.433,2.068-.678,1.675-.5,2.5-.783a20.994,20.994,0,0,0,2.2-.97,20.986,20.986,0,0,0-2.748.984c-.9.325-1.5.51-.926.029a9.468,9.468,0,0,1-3.349,1.317,22.239,22.239,0,0,0-4.436,1.261l.142-.375a14.707,14.707,0,0,1-2.5.718l1.639-.747c-2.58.852-5.148.7-7.676,1.192,2.675-.365,2.99-.324,2.925-.185s-.509.4.64.3a16.839,16.839,0,0,1-2.065.416c-.573.086-1.039.136-1.436.162a10.364,10.364,0,0,1-1.851-.049c-.539-.04-1.108-.14-2-.154a36.988,36.988,0,0,0-3.967.22c1-.1,3.792-.12,2.23.177-.712.018-1.537.072-2.3.033a18.77,18.77,0,0,1-1.887-.157c-4.935.246.769.313-1.329.591-1.694-.316-2.43.183-4.617.294l-.008-.336c-.706-.038-1.258-.055-1.7-.057-.437-.021-.757-.027-1-.017a1.806,1.806,0,0,0-.818.17c-.313.15-.56.3-3.1,0l2.187-.326c-.884-.026-1.773-.013-2.656-.072.194-.109.385-.205.578-.325a31.116,31.116,0,0,1-3.322-.177,27.755,27.755,0,0,1-3.234-.546c.612.342-.457.542-2.943.141-1.645-.515.993-.1-2.493-.8a8.4,8.4,0,0,1,1.359.011,5.817,5.817,0,0,1,.832.157,7,7,0,0,1,1,.3c.176-.082.815-.079.994-.159-1.777-.472-4.5-.939-5.761-1.2a13.729,13.729,0,0,1,1.336.37c-.851-.109-1.708-.2-2.56-.326l-2.543-.443c-.751-.332-.1-.263.538-.194-1.009-.251-1.762-.238-3.231-.678.458-.146.44-.407,2.559.017-1.6-.29-3.173-.726-4.756-1.124-.279-.2-2.272-1.09-1.638-.986a43.121,43.121,0,0,0-4.525-1.523c-.835-.293-1.7-.6-2.55-.932a17.237,17.237,0,0,1-2.482-1.138,6.928,6.928,0,0,1-1.251-.454c-.751-.385-1.473-.776-2.19-1.166L298.543,307c-.717-.426-1.467-.833-2.25-1.264-.772-.451-1.594-.9-2.5-1.345-.551-.544-1.127-1.047-1.651-1.621-2.644-1.674,2.2,2.252-2.216-.544-1.574-.982-1.8-1.259-1.751-1.407s.353-.132-.122-.577c-.8-.453-1.919-1.061-3.146-1.855a22.384,22.384,0,0,1-3.663-3.107C282.171,295.929,282.8,296.548,283.631,297.194ZM258.884,267.75c.208.315.533.777.819,1.23a3.86,3.86,0,0,1,.629,1.162,2.684,2.684,0,0,1-.836-.949C259.294,268.809,259.137,268.34,258.884,267.75Zm-12.5-56.948a9.554,9.554,0,0,1-.241,2.405A15.005,15.005,0,0,1,246.386,210.8ZM363.78,118.913l-.085,0C362.012,118.5,362.608,118.655,363.78,118.913Zm3.495.811c.361.03.347-.021.208-.1a9.76,9.76,0,0,1-1.943-.348A5.132,5.132,0,0,0,367.275,119.725Zm19.353,194.644-.678.183C387.367,313.867,386.994,314.113,386.629,314.368Z" transform="translate(-243.785 -117.336)" fill="#fff"/>
        <path id="Path_4443" data-name="Path 4443" d="M246.94,236.387a.5.5,0,0,1-.187.318C246.805,237,246.87,237.011,246.94,236.387Z" transform="translate(-244.255 -136.188)" fill="#fff"/>
        <path id="Path_4444" data-name="Path 4444" d="M315.336,346.068l.1.055a.258.258,0,0,0,.132,0Z" transform="translate(-255.124 -153.57)" fill="#fff"/>
        <path id="Path_4445" data-name="Path 4445" d="M326.376,127.616a8.585,8.585,0,0,1-1.363.3C325,128,325.336,127.959,326.376,127.616Z" transform="translate(-256.658 -118.95)" fill="#fff"/>
        <path id="Path_4446" data-name="Path 4446" d="M411.918,126c-.712-.294-1.45-.518-2.179-.766a9.943,9.943,0,0,1,1.893.858C411.615,126,411.253,125.718,411.918,126Z" transform="translate(-270.085 -118.573)" fill="#fff"/>
        <path id="Path_4447" data-name="Path 4447" d="M431.848,139.263c.3.151.581.391.873.541l.014-.181C431.563,138.835,430.682,138.386,431.848,139.263Z" transform="translate(-273.502 -120.72)" fill="#fff"/>
        <path id="Path_4448" data-name="Path 4448" d="M414.127,128.366c.026.166.377.368.907.6.264.117.575.242.911.375l1.049.469-.253-.125c.3-.075.048-.27-.473-.526S414.93,128.647,414.127,128.366Z" transform="translate(-270.78 -119.069)" fill="#fff"/>
        <path id="Path_4449" data-name="Path 4449" d="M417.934,130.269c.448.2.9.419,1.329.644C419.5,130.853,418.739,130.619,417.934,130.269Z" transform="translate(-271.383 -119.371)" fill="#fff"/>
        <path id="Path_4450" data-name="Path 4450" d="M395.574,121.075c.719.268.554-.226.943,0,.459-.062-.8-.289-1.664-.385-.429-.055-.764-.048-.731,0A7.651,7.651,0,0,0,395.574,121.075Z" transform="translate(-267.61 -117.846)" fill="#fff"/>
        <path id="Path_4451" data-name="Path 4451" d="M414.836,129.865l-.379-.544-.93-.1Z" transform="translate(-270.685 -119.205)" fill="#fff"/>
        <path id="Path_4452" data-name="Path 4452" d="M401.279,124.428l2.386.869c-.018-.067.3,0,.686.1A23.434,23.434,0,0,0,401.279,124.428Z" transform="translate(-268.744 -118.443)" fill="#fff"/>
        <path id="Path_4453" data-name="Path 4453" d="M404.929,125.578c.77.266,1.49.551,1.937.651C406.45,126.084,405.564,125.74,404.929,125.578Z" transform="translate(-269.323 -118.627)" fill="#fff"/>
        <path id="Path_4454" data-name="Path 4454" d="M410.822,128.277c-.22-.12-.438-.247-.661-.36l-1.664-.653C409.273,127.6,410.067,127.893,410.822,128.277Z" transform="translate(-269.888 -118.894)" fill="#fff"/>
        <path id="Path_4455" data-name="Path 4455" d="M368.866,119.026l-2.772.06c-.282.115.471.2,1.5.167C368.258,119.179,369.287,119.148,368.866,119.026Z" transform="translate(-263.159 -117.589)" fill="#fff"/>
        <path id="Path_4456" data-name="Path 4456" d="M378.958,120.8a4.559,4.559,0,0,1-1.176-.4l-.126.421Z" transform="translate(-265 -117.806)" fill="#fff"/>
        <path id="Path_4457" data-name="Path 4457" d="M369.34,120.287c-.28.116-3.98.286-.513.31C369.106,120.463,371.854,120.46,369.34,120.287Z" transform="translate(-263.368 -117.789)" fill="#fff"/>
        <path id="Path_4458" data-name="Path 4458" d="M321.418,127.874l.647-.271-.35-.623Z" transform="translate(-256.088 -118.849)" fill="#fff"/>
        <path id="Path_4459" data-name="Path 4459" d="M286.022,152c2.507-2.016.267-.849,2.591-2.612.454-.635-1.9,1.442-1.413.822C285.867,151.641,285.043,152.248,286.022,152Z" transform="translate(-250.41 -122.38)" fill="#fff"/>
        <path id="Path_4460" data-name="Path 4460" d="M287.5,150.242c.215-.23.438-.477.671-.747C287.782,149.907,287.607,150.109,287.5,150.242Z" transform="translate(-250.713 -122.417)" fill="#fff"/>
        <path id="Path_4461" data-name="Path 4461" d="M487.142,226.34c0-.718-.075-1.428-.115-2.143l-.049,1.4C487.046,225.842,487.087,226.092,487.142,226.34Z" transform="translate(-282.326 -134.256)" fill="#fff"/>
        <path id="Path_4462" data-name="Path 4462" d="M485.887,221.658l.379-.564-.579-1.208A8.51,8.51,0,0,1,485.887,221.658Z" transform="translate(-282.121 -133.573)" fill="#fff"/>
        <path id="Path_4463" data-name="Path 4463" d="M259.587,289.472l-.165-.1a6.426,6.426,0,0,0,.619,1.661Z" transform="translate(-246.263 -144.585)" fill="#fff"/>
        <path id="Path_4464" data-name="Path 4464" d="M277.394,317.255l-.315-.364.3.941Z" transform="translate(-249.061 -148.946)" fill="#fff"/>
        <path id="Path_4465" data-name="Path 4465" d="M298.093,335.024c-.789-.534-1.734-1.138-2.486-1.734C297.289,334.507,298.021,335.578,298.093,335.024Z" transform="translate(-251.998 -151.545)" fill="#fff"/>
      </g>
    </g>
    <text id="Gourmay" transform="translate(11.551 125.76) rotate(-12.835)" fill="#fff" font-size="65" font-family="Allura-Regular, Allura"><tspan x="0" y="0">Gourmay</tspan></text>
    <text id="plating_for_individuals" data-name="plating for individuals" transform="translate(73.481 136.934) rotate(-12.825)" fill="#fff" font-size="9" font-family="UniversityRomanStd-Bold, University Roman Std" font-weight="700"><tspan x="0" y="0">plating for individuals</tspan></text>
    <g id="Group_1641" data-name="Group 1641" transform="translate(236.752 45.595)">
      <g id="Group_1640" data-name="Group 1640">
        <path id="Path_4466" data-name="Path 4466" d="M523.406,173.309q.121,1.188-2.176,4.546-2.782,4.486-3.614,4.574c-.2.02-.313-.129-.346-.445a18.17,18.17,0,0,1,1.454-2.221,10.506,10.506,0,0,0,1.8-3.787,3.133,3.133,0,0,0-.152-2.356q-1.212-1.858,1.284-2.114a1.3,1.3,0,0,1,1.17.571A2.389,2.389,0,0,1,523.406,173.309Z" transform="translate(-517.27 -171.499)" fill="#fff"/>
      </g>
    </g>
    <path id="Path_4467" data-name="Path 4467" d="M543.243,174.236a5.647,5.647,0,0,0-3.682-.929q-4.128,0-9.151,3.028-4.346,2.621-5.29,5.807a5.229,5.229,0,0,0,.533,4.068,7.365,7.365,0,0,0,1.936,1.753q.206.139,1.789.964,3.37,1.79,3.371,3.3,0,2.752-2.786,5.4a14.561,14.561,0,0,1-5.746,3.544,4.674,4.674,0,0,1-1.341.206,1.5,1.5,0,0,1-1.17-.619q-.516-.62.379-1.651a3.782,3.782,0,0,1,1.41-1.308c.435-.183.677-.344.722-.481a.316.316,0,0,0-.412-.413,10.575,10.575,0,0,0-3.3,2,3.86,3.86,0,0,0-1.1,1.893,1.446,1.446,0,0,0,.206.86,2.061,2.061,0,0,0,2.03,1.1,12.6,12.6,0,0,0,2.924-.344q6.4-1.444,9.633-5.023,2.271-2.477,1.926-4.541a2.8,2.8,0,0,0-1.032-1.651,10.7,10.7,0,0,0-1.651-1.307q-.689-.413-2.339-1.308t-2.34-1.307q-1.651-.963-1.652-2.168a3.887,3.887,0,0,1,.895-2.374,16.679,16.679,0,0,1,6.3-5.16,15.932,15.932,0,0,1,6.708-2h.413a1.2,1.2,0,0,1,1.1,1.514,3.494,3.494,0,0,1-.929,1.961q-.722.723-.585,1.135a.439.439,0,0,0,.688.138,5.391,5.391,0,0,0,2.1-2.2,5.22,5.22,0,0,0,.516-2.064A2.546,2.546,0,0,0,543.243,174.236Z" transform="translate(-280.856 -126.191)" fill="#fff"/>
    <g id="Group_1642" data-name="Group 1642" transform="translate(70.411 101.349)">
      <path id="Path_4468" data-name="Path 4468" d="M444.9,237.879c.045-.055-.008-.142-.157-.088l-.071.186Z" transform="translate(-339.424 -237.757)" fill="#fff"/>
      <path id="Path_4469" data-name="Path 4469" d="M443.6,237.82c-.162.12-.337.306-.186.426.142-.2.2-.141.348-.37.149-.055.279-.011.268.054.044-.054.246-.02.3-.141a.8.8,0,0,0-.72.141C443.545,237.907,443.589,237.852,443.6,237.82Z" transform="translate(-339.215 -237.754)" fill="#fff"/>
      <path id="Path_4470" data-name="Path 4470" d="M425.819,241.707l.1,0A.315.315,0,0,0,425.819,241.707Z" transform="translate(-336.436 -238.379)" fill="#fff"/>
      <path id="Path_4471" data-name="Path 4471" d="M414.794,244.178c.069-.021.1-.044.1-.059C414.826,244.145,414.775,244.167,414.794,244.178Z" transform="translate(-334.688 -238.762)" fill="#fff"/>
      <path id="Path_4472" data-name="Path 4472" d="M412.867,244.417l.1-.011A.121.121,0,0,0,412.867,244.417Z" transform="translate(-334.383 -238.807)" fill="#fff"/>
      <path id="Path_4473" data-name="Path 4473" d="M425.77,241.708l-.259.008C425.506,241.772,425.646,241.725,425.77,241.708Z" transform="translate(-336.387 -238.38)" fill="#fff"/>
      <path id="Path_4474" data-name="Path 4474" d="M441.3,238.854a.443.443,0,0,0,.124-.073c-.04.017-.08.032-.122.046A.152.152,0,0,1,441.3,238.854Z" transform="translate(-338.89 -237.917)" fill="#fff"/>
      <path id="Path_4475" data-name="Path 4475" d="M430.631,240.395l.075-.018a.388.388,0,0,0,.047-.08Z" transform="translate(-337.199 -238.157)" fill="#fff"/>
      <path id="Path_4476" data-name="Path 4476" d="M434.331,239.509c-.072.011-.065.153-.078.219a.232.232,0,0,1,.132-.13A.18.18,0,0,0,434.331,239.509Z" transform="translate(-337.773 -238.032)" fill="#fff"/>
      <path id="Path_4477" data-name="Path 4477" d="M440.313,238.4l.084-.04C440.375,238.372,440.338,238.386,440.313,238.4Z" transform="translate(-338.733 -237.85)" fill="#fff"/>
      <path id="Path_4478" data-name="Path 4478" d="M427.952,241a.115.115,0,0,0-.04-.042A.07.07,0,0,0,427.952,241Z" transform="translate(-336.768 -238.261)" fill="#fff"/>
      <path id="Path_4479" data-name="Path 4479" d="M324.161,266.683c0-.01-.005-.015-.006-.024C324.14,266.678,324.136,266.688,324.161,266.683Z" transform="translate(-320.323 -242.334)" fill="#fff"/>
      <path id="Path_4480" data-name="Path 4480" d="M319.661,266.881l.049-.018a.4.4,0,0,0-.007-.079Z" transform="translate(-319.612 -242.354)" fill="#fff"/>
      <path id="Path_4481" data-name="Path 4481" d="M409.381,245.016h.013C409.468,244.982,409.425,245,409.381,245.016Z" transform="translate(-333.831 -238.901)" fill="#fff"/>
      <path id="Path_4482" data-name="Path 4482" d="M377.833,252.556c.329.051-.453.272.032.3C377.811,252.814,378.227,252.548,377.833,252.556Z" transform="translate(-328.811 -240.099)" fill="#fff"/>
      <path id="Path_4483" data-name="Path 4483" d="M441.176,238.87c-.042.011-.084.023-.128.031A.53.53,0,0,0,441.176,238.87Z" transform="translate(-338.849 -237.931)" fill="#fff"/>
      <path id="Path_4484" data-name="Path 4484" d="M377.9,252.913v0l.05,0Z" transform="translate(-328.841 -240.156)" fill="#fff"/>
      <path id="Path_4485" data-name="Path 4485" d="M401.485,246.979a.2.2,0,0,0,.082.044C401.562,247.009,401.542,247,401.485,246.979Z" transform="translate(-332.58 -239.216)" fill="#fff"/>
      <path id="Path_4486" data-name="Path 4486" d="M407.415,245.823l-.127.01A.559.559,0,0,0,407.415,245.823Z" transform="translate(-333.499 -239.032)" fill="#fff"/>
      <path id="Path_4487" data-name="Path 4487" d="M398.441,247.928a.375.375,0,0,0-.183.031.119.119,0,0,0,.032.01A.191.191,0,0,1,398.441,247.928Z" transform="translate(-332.068 -239.366)" fill="#fff"/>
      <path id="Path_4488" data-name="Path 4488" d="M395.288,248.676a.389.389,0,0,0,.056.016l.083-.028Z" transform="translate(-331.598 -239.483)" fill="#fff"/>
      <path id="Path_4489" data-name="Path 4489" d="M333.79,264.315a.463.463,0,0,1-.153-.093C333.7,264.309,333.315,264.436,333.79,264.315Z" transform="translate(-321.813 -241.948)" fill="#fff"/>
      <path id="Path_4490" data-name="Path 4490" d="M441.267,238.778a.1.1,0,0,1-.066.077c.03-.009.06-.019.087-.029C441.291,238.8,441.288,238.786,441.267,238.778Z" transform="translate(-338.874 -237.916)" fill="#fff"/>
      <path id="Path_4491" data-name="Path 4491" d="M398.566,249.237l-.431.08A4.209,4.209,0,0,0,398.566,249.237Z" transform="translate(-332.049 -239.574)" fill="#fff"/>
      <path id="Path_4492" data-name="Path 4492" d="M356.684,258.933l-.093.04A.167.167,0,0,0,356.684,258.933Z" transform="translate(-325.465 -241.11)" fill="#fff"/>
      <path id="Path_4493" data-name="Path 4493" d="M396.58,249.7a.762.762,0,0,0-.262-.038.185.185,0,0,0-.042.047Z" transform="translate(-331.754 -239.641)" fill="#fff"/>
      <path id="Path_4494" data-name="Path 4494" d="M333.652,264.22v0Z" transform="translate(-321.83 -241.948)" fill="#fff"/>
      <path id="Path_4495" data-name="Path 4495" d="M328.694,261.07c.407-.091.15-.22.211-.343.473-.165.256.08.442.132.292-.119.486-.337.713-.384.024.026.07.026.028.075.286-.217.948-.23,1.279-.5a.12.12,0,0,1,.059.033.342.342,0,0,1-.115-.232c.182-.046.311-.193.407-.092-.112.023-.11.072-.154.121l.178-.1c.212.128-.247.12-.217.244a4.613,4.613,0,0,1,1.056-.4c.1.152-.654.212-.239.269l-.455.041c.4.181-.273.045.1.25.592-.088.629-.236,1.219-.325.109-.122-.075-.125.035-.247.784-.358.745.263,1.3-.1.131-.147.143-.369.6-.361l-.1.221c.566-.114.258-.343.876-.357-.087.1-.427.166-.337.168.417.057.245-.169.539-.238l.1.151c.592-.167,1.224-.441,1.879-.627-.025.058-.127.136.04.151a12.7,12.7,0,0,1,2.618-.491l.274-.215c.072-.015.148.033.077.079.326-.02-.005-.094.133-.186.176-.051.255.027.151.1a5.918,5.918,0,0,1,2.138-.616l-.1.069c.468-.049.444-.412.9-.379l-.075.044a16.672,16.672,0,0,1,2.865-.519c.1-.239,1-.138,1-.439a5.179,5.179,0,0,0,1.264.008c.215-.037.273-.253.529-.345l.041.148.319-.241.231.135.237-.1c-.1.014-.225-.019-.22-.065a1.439,1.439,0,0,1,.988-.042l.879-.34c-.006.065-.153.121-.265.189.449-.267.125.136.537-.108-.067-.02.012-.1.014-.13a3.035,3.035,0,0,0,1.112-.205l-.047.12c.68-.132,1.409-.384,2.166-.56-.283.016-.263-.178-.045-.247l.126.137c.12-.131-.246-.005.02-.194.286-.048.231.135.082.225l.331-.135c.031.043-.044.087-.051.151.118-.131.63.019.794-.2l.03.042c.757-.177,1.087-.311,1.7-.465-.019-.139.228-.165.386-.319a12.153,12.153,0,0,0,1.533-.213c.367-.158.084-.142.237-.263.058.117.6-.023.338.133a13.921,13.921,0,0,0,1.634-.517c-.1-.029-.208-.028-.166-.082.146-.056.354-.029.347.036l-.036.023c.885-.406,2.23-.142,2.908-.576l-.038.023.736-.316c.358-.061-.19.144.089.159.779-.4,1.315-.278,1.964-.576.614.242,1.867-.466,2.634-.4l-.061-.077c.164-.128.234,0,.374-.015-.035-.062-.218-.03-.114-.1a44.286,44.286,0,0,1,4.865-.928c.591-.114.227-.524,1.012-.491l-.171.21c1.134-.47,2.414-.56,3.531-1-.061.053-.051.1-.164.128.272.059.9-.207.885-.3.183-.031.062.077.184.1.261.012.579-.293.736-.208.027.014-.06.054-.1.074.146-.094.747-.161.562-.259.449-.038.815-.254,1.181-.257.19-.2.759-.1.78-.331.021.226.8,0,1.052-.17-.077.088.254.013.168.13.312-.077.59-.185.508-.285.638.127,1.109-.483,1.512-.223.9-.337,1.743-.619,2.567-.866.022.226-.919.239-.829.46a10.172,10.172,0,0,1,1.984-.7c.21-.018-.093.122-.153.176.771-.277,1.537-.341,2.213-.625,0,.021-.068.061-.136.094.138-.04.331-.044.292-.14l-.129.059c-.256-.092.48-.431.487-.513-.168.341.714-.092.423.357.087-.04.191-.114.154-.176.141-.013.193.016.072.124.486-.171.284-.236.735-.339.01.049-.077.088-.109.157a1.574,1.574,0,0,1,.8-.344c-.016.035.037.061-.077.088a10.446,10.446,0,0,1,1.8-.59c-.162.258.26.011.341.183l.374-.145-.176-.051a5.574,5.574,0,0,1,.911-.288l-.234.134.625-.183-.374.015c.321-.173-.091-.22.371-.276-.087.04.339-.077.54-.012h0a1.1,1.1,0,0,1,.572-.212c.078.043-.005.213.046.242.13-.19.782-.228.953-.438a.119.119,0,0,0-.014.164l.109-.156c.166,0,.194.016.186.1.476-.088-.2-.194.379-.226-.041.02-.016.034-.1.073.574-.08,1.067-.332,1.6-.394.2.146-.44.151-.23.263.736-.208,1.489-.581,2.22-.707l-.14.012c.04-.281.566,0,.9-.206-.085.04-.083.171-.066.136a10.428,10.428,0,0,0,1.721-.557l-.077.088c.3-.01.773-.146,1.094-.19.078-.088.26-.119.128-.189,1.057.149,1.8-.636,2.732-.524-.1.024-.231.115-.149.1l.717-.232c-.084-.1-.112-.045-.286-.1a.973.973,0,0,1,.453-.231c-.311.151.045.179.2.208-.032-.029.008-.077-.013-.11.429.11.011-.241.565-.229l-.014.066a2.508,2.508,0,0,1,.565-.229c.118.109-.194.109-.182.22.294-.077.526-.383.824-.316-.117.066-.3.109-.415.174a1.014,1.014,0,0,0,.574.01l-.022,0,.517-.049-.137-.011c.291-.426.74-.239,1.186-.578-.435.324-.051.141-.054.3.136.01.341.011.3.065.208-.173.416,0,.707-.25.026.044.253-.055.228.077.3-.109-.092-.066-.08-.131.434-.273,1.156-.065,1.783-.446.565-.229.635-.414,1.16-.621.2.032-.11.207-.11.207a1.774,1.774,0,0,0,.8-.184c-.047.055.019.076.117.109.221-.065.109-.207.421-.207a.784.784,0,0,1-.179.243c.254-.106.494-.256.757-.363.092.066-.135.164-.219.241.3-.109.777-.262.842-.415h-.208c.11-.033.084.1.007.142-.239.164-.39.044-.416,0l.188-.076c-.265-.231-.771.228-1.166.3l.116-.24-.362.262c-.1-.032-.183-.131,0-.207-.3-.034-.231.13-.5.076-.03-.011-.021-.024,0-.038l-.26.125c.044-.055-.079-.131.1-.142-.52,0-.758.338-.98.229l.038-.022c-.666.229-.031.163-.5.458l-.431-.284-.032.164c-.072.011-.214.033-.2-.033-.238.163.06.054-.07.186-.37-.056-.92.283-1.052.065-.1.141.345.01,0,.173-.163-.229-.409.142-.746.1.064-.153.374-.153.036-.2-.135.265-.614.093-.866.2.03.179-.55.207-.975.369a9.414,9.414,0,0,0-1.271.129l.005-.033c-.037.2-.465.263-.763.371-.013-.109.033-.164.187-.251l-.288.068a.613.613,0,0,1-.319.189l.041-.15a5.408,5.408,0,0,1-1.249.365c0,.13.473.253-.029.459-.035-.063-.082-.173.049-.233a.513.513,0,0,1-.243.086l.182-.162c-.236,0-.1.122-.278.153-.018-.1-.149-.037-.14-.119.044-.02.166,0,.225-.051a1.187,1.187,0,0,1-.562-.023c.03.05.03.13-.115.177-.382.1-.158-.084-.394-.082-.077.088-.337.077-.311.222-.112.025-.149-.036-.2-.065-.183.109-.922.236-.663.336l.054,0-.031.014h0a16.806,16.806,0,0,1-2,.449l-.011-.049a7.24,7.24,0,0,0-1.1.4c-.114.026-.289-.024-.254-.093a1.646,1.646,0,0,1-.75.188c.276-.153-.119-.05.289-.132a1.58,1.58,0,0,0-.877.22c.111-.156-.324-.087-.5-.008l.289.025a3.834,3.834,0,0,1-.565.129l.061-.184c-.83-.013-1.334.666-2.006.477-.181.162.443-.02.289.156a5.162,5.162,0,0,1-.908-.055c-.514.026-.4.343-.935.4.079.042.178.181-.2.326-.365.064-.5-.137-.283-.236.085-.025.131-.017.132,0,.112-.048.258-.109.1-.138l-.033.069c-.193-.017-.687.106-.593-.016-.259.119-.093.122.115.1-.482.025-.723.167-1.212.223.083.013.168.065.093.082-.714.093-.282.181-.749.317-.289-.024.047-.232-.411-.046-.3.008-.1-.139.008-.213a2.616,2.616,0,0,1-1.08.156l.217-.1a1.711,1.711,0,0,1-.356.111l.157.085c-.139.011-.252.038-.261-.011-.12.108.151.167-.1.334-.193-.016-.529.191-.628.053.575-.081-.1-.14.372-.276a1.018,1.018,0,0,1-.338.077c-.024-.013.011-.036.045-.054-.57-.01-.206.231-.765.358.051-.1-.167-.133-.254-.093.226-.051.141.119-.049.233-.374.017-.377.141-.566.178l.221-.019c-.052.1-.234.134-.476.219-.037-.061.215-.1.12-.108-.242.216-.662-.01-1.024.183-.193-.016-.055-.157-.221-.16-.406.213-.5-.008-.929.191.158.085.174.051-.119.239l.728-.257-.439.281c.225-.051.459-.184.6-.2-.206.148-.189.114-.059.185-.35-.1-.588.245-.973.211l-.056-.289c-.566,0-.918.371-1.632.463l.236,0c-.066.135-.426.117-.64.216,0-.1-.151-.1-.261-.14.028.068-.512.113-.529.32l-.341-.054c-.575.081-.577.424-1.126.518.139-.142-.123-.152.221-.312-.181.042-.347.062-.334.13-.12-.035-.47.247-.657.194-.066.06-.067.167-.272.206-.027-.014-.011-.048-.011-.048.011.048-.3.139-.1.2-.626-.168-1.548.387-2.093.244-.386.125-.853.267-1.209.358.016-.034-.01-.048.06-.054-.514.027-.238.347-.823.379-.323-.087.279-.153.086-.17-.151-.3-.667.2-1.088.107l.088-.04c-.314-.039-.677.285-1.154.374,0,0,.017-.034-.008-.048a4.919,4.919,0,0,1-1.326.584c.113-.157.191-.114.076-.219-.2.066.107.188-.291.318-.148-.036-.454-.027-.525-.151l.381-.1c-.236-.127-.494.122-.7.14l.008-.082c-.581.162-.544.355-1.178.49l.078.042c-.3.269-.314-.039-.624.183l-.149-.167a11.865,11.865,0,0,1-1.153.5,5.1,5.1,0,0,1,.933-.535,2.516,2.516,0,0,0-.858.316.641.641,0,0,1,.287-.105,2.3,2.3,0,0,1-1.038.477c-.008-.39-1.193.182-1.587-.03a18.827,18.827,0,0,1-2.511.552c.4.212-.269.072-.141.355-.211.07-.295.084-.319.069l-.7-.024c-.175-.05.19-.114.154-.175-.477.088-.227-.079-.558-.085.088.091-.129.191-.407.214l.411.047c-.623.313-.629-.114-1.257.2l.188-.143c-.328.135-1.26.294-1.538.611-.068-.02-.167-.082-.022-.139a20.05,20.05,0,0,1-2.424.682l.045-.088c-.147.057-.233.2-.441.171,0-.033.045-.087-.027-.075a1.516,1.516,0,0,1-.586.227l.153-.122a7.813,7.813,0,0,0-1.83.693c-.048-.214-.691-.136-1.011-.1l0-.033a17.5,17.5,0,0,0-2.371.833,18.73,18.73,0,0,0-2.714.4c.141.008.018.172-.129.229-.211,0-.521.279-.535.075l.072-.013c-.2-.157-.6-.008-.921.061l.007.269c-.931-.175-2.176.656-2.715.43-.188.112-.441.171-.628.282l-.021-.14a11.772,11.772,0,0,0-1.547.342l.119-.131c-.395.083-.4.513-.763.606l-.157-.179a7.956,7.956,0,0,0-2.055.492c0-.032.01-.1.12-.13-.325.07-1.282.154-1.1.408-.051-.181-.712.149-1.063.316l.026-.149a1.414,1.414,0,0,1-.7.446c-.107.008-.115-.087.03-.084-.361.01-.238.191-.673.217l.135-.123a.686.686,0,0,0-.49.259c-.21.107-.68.125-.762.014a.512.512,0,0,1-.418.245c-.039-.04.03-.086.066-.109-.615.048-.845.365-1.284.328a.1.1,0,0,0-.088-.065c.471-.108.852-.189.82-.171-.029-.125-.415-.057-.153-.3a3.174,3.174,0,0,1-1.142.521.177.177,0,0,1-.06-.031l.035-.024a.557.557,0,0,0-.23.076,1.732,1.732,0,0,0-.316.034c-.068-.093-.449.047-.64.087.048.133-.206.169.053.227-.032,0,.032-.025.157-.061a.374.374,0,0,0,.077-.033l-.01.015c.124-.034.285-.075.47-.12a.643.643,0,0,1-.5.173c-.077.111-.163.226-.214.283-.3-.13-.829-.114-.926-.215a4.947,4.947,0,0,0-1.658.713c-.156.072-.206-.029-.277-.055.088-.048.2-.071.246-.12-.314.143-.97.255-1.006.453-.434.017.194-.22-.369-.056l.065-.073c-1.19-.022-1.718.886-3.048.811.092,0,.137,0,.162.029-1.457.171-2.887.839-4.347.91-.41.042-.427.167-.649.311l-.12-.126-.375.267c-.56.262-1.1-.12-1.794.289l.12.076c-.273.045-.835.258-.816.134-.024.024-.064.123-.18.1l-.027-.075-.626.286c-.523.065.008-.323-.739-.163-.27.1-.736.408-.619.435.113-.022.3-.019.323.056l-.244.1c.008.236-.133.513.525.525l.4-.24.165.077-.363.093c.231.054.34-.068.472-.165a.286.286,0,0,0,.21.078l.374-.316c.072.077-.15.22.146.2.176-.147-.237-.153.077-.3.231.054.191.152.413.007.047.05.005.1-.086.147.2-.12.565-.164.649-.311.246.077.722-.2.751.014a1.587,1.587,0,0,1,.538-.312c-.3.341.746-.16.715.137.215-.294.946-.331,1.391-.57-.022.024-.066.074-.11.072a2.035,2.035,0,0,1,.549.011c-.011-.2.4-.34.593-.51.371.106-.146.27,0,.422-.053-.15.534-.288.392-.39.278.055.229,0,.4.131-.012-.247.224-.1.4-.289.39.031.146.2.528.034C329.029,260.9,328.694,261.07,328.694,261.07Zm9.39-2.641v0l-.194.054Zm.8-.189c-.1.017-.22.045-.347.076-.04-.04-.02-.1.061-.113C338.558,258.245,338.753,258.228,338.881,258.24Zm-1.909-.55c.122-.049.17-.032.194-.008-.059.016-.128.037-.217.068,0,.006-.008.013-.011.02A.177.177,0,0,1,336.972,257.691Z" transform="translate(-319.603 -237.814)" fill="#fff"/>
      <path id="Path_4496" data-name="Path 4496" d="M340.015,261.646a.345.345,0,0,1-.05.023.755.755,0,0,0,.082.013l.034-.053Z" transform="translate(-322.83 -241.537)" fill="#fff"/>
      <path id="Path_4497" data-name="Path 4497" d="M425.956,241.7h-.018a.094.094,0,0,1,.04.011A.194.194,0,0,1,425.956,241.7Z" transform="translate(-336.455 -238.38)" fill="#fff"/>
      <path id="Path_4498" data-name="Path 4498" d="M355.652,259.255l-.009-.034-.063.047Z" transform="translate(-325.305 -241.156)" fill="#fff"/>
      <path id="Path_4499" data-name="Path 4499" d="M431.308,241.032a.105.105,0,0,0,.066.022C431.37,241.045,431.342,241.039,431.308,241.032Z" transform="translate(-337.306 -238.273)" fill="#fff"/>
      <path id="Path_4500" data-name="Path 4500" d="M433.57,240.536l.28-.014A2.159,2.159,0,0,0,433.57,240.536Z" transform="translate(-337.664 -238.192)" fill="#fff"/>
      <path id="Path_4501" data-name="Path 4501" d="M435.322,240.2a.162.162,0,0,0,.015-.065h0Z" transform="translate(-337.942 -238.131)" fill="#fff"/>
      <path id="Path_4502" data-name="Path 4502" d="M407.791,246.879a.456.456,0,0,0-.055.019C407.611,246.956,407.7,246.924,407.791,246.879Z" transform="translate(-333.56 -239.2)" fill="#fff"/>
      <path id="Path_4503" data-name="Path 4503" d="M415.885,244.573a1.848,1.848,0,0,1-.207.117C415.8,244.672,415.9,244.651,415.885,244.573Z" transform="translate(-334.829 -238.834)" fill="#fff"/>
      <path id="Path_4504" data-name="Path 4504" d="M398.694,249.227v0l-.047.011Z" transform="translate(-332.13 -239.571)" fill="#fff"/>
      <path id="Path_4505" data-name="Path 4505" d="M415.3,244.784a.761.761,0,0,0,.321-.072A1.211,1.211,0,0,0,415.3,244.784Z" transform="translate(-334.768 -238.856)" fill="#fff"/>
      <path id="Path_4506" data-name="Path 4506" d="M442.85,238.514l.072-.011a.029.029,0,0,1,0-.024Z" transform="translate(-339.135 -237.869)" fill="#fff"/>
      <path id="Path_4507" data-name="Path 4507" d="M442.939,238.473l.074-.035C442.978,238.446,442.947,238.455,442.939,238.473Z" transform="translate(-339.149 -237.862)" fill="#fff"/>
      <path id="Path_4508" data-name="Path 4508" d="M443.184,238.351l-.156.073C443.084,238.411,443.156,238.4,443.184,238.351Z" transform="translate(-339.163 -237.848)" fill="#fff"/>
      <path id="Path_4509" data-name="Path 4509" d="M440.537,238.984l-.011.055A.072.072,0,0,0,440.537,238.984Z" transform="translate(-338.767 -237.949)" fill="#fff"/>
      <path id="Path_4510" data-name="Path 4510" d="M439.846,239.147a2.1,2.1,0,0,0,.564-.054l.008-.044C440.344,239.144,439.959,239.032,439.846,239.147Z" transform="translate(-338.659 -237.959)" fill="#fff"/>
      <path id="Path_4511" data-name="Path 4511" d="M436.765,239.082l.5-.077c-.1-.032-.228-.077-.008-.141C436.6,238.852,437.414,238.951,436.765,239.082Z" transform="translate(-338.171 -237.93)" fill="#fff"/>
      <path id="Path_4512" data-name="Path 4512" d="M434.9,239.437c.258-.087-.021-.077-.014-.109C434.735,239.416,434.7,239.437,434.9,239.437Z" transform="translate(-337.853 -238.003)" fill="#fff"/>
      <path id="Path_4513" data-name="Path 4513" d="M421.825,242.509l0-.13C421.623,242.445,421.832,242.428,421.825,242.509Z" transform="translate(-335.789 -238.487)" fill="#fff"/>
      <path id="Path_4514" data-name="Path 4514" d="M419.519,243.865l.216.031.068-.136Z" transform="translate(-335.438 -238.705)" fill="#fff"/>
      <path id="Path_4515" data-name="Path 4515" d="M417.748,243.174l.085-.039-.329.125Z" transform="translate(-335.118 -238.607)" fill="#fff"/>
      <path id="Path_4516" data-name="Path 4516" d="M395.821,248.4l.1.139C396.05,248.475,396.038,248.3,395.821,248.4Z" transform="translate(-331.682 -239.435)" fill="#fff"/>
      <path id="Path_4517" data-name="Path 4517" d="M386.287,250.81a.479.479,0,0,0-.462.056A3.3,3.3,0,0,0,386.287,250.81Z" transform="translate(-330.098 -239.817)" fill="#fff"/>
      <path id="Path_4518" data-name="Path 4518" d="M357.813,257.2l.149-.089-.293.114Z" transform="translate(-325.636 -240.821)" fill="#fff"/>
    </g>
  </g>
</svg>
